<svg width="20" height="28" viewBox="0 0 20 28" fill="none" xmlns="http://www.w3.org/2000/svg">
<path d="M16.7472 11.5524C15.1474 8.10928 13.8267 5.26653 17.9127 0.881863C14.6776 0.940993 10.893 1.58232 7.8573 3.11968C5.31797 4.40233 3.31044 6.30357 2.62353 9.03261C1.7372 12.544 2.62353 15.3003 3.38134 17.7155C4.43164 20.9676 5.27809 23.6512 1.91004 26.776C3.17101 27.0058 4.44941 27.1199 5.73011 27.1171C8.52952 27.1622 11.3057 26.5898 13.871 25.4387C16.1888 24.3107 17.957 22.5914 18.5021 20.199C18.6253 19.6593 18.6863 19.1067 18.6838 18.5524C18.6838 15.7233 17.6645 13.5492 16.7472 11.5524ZM19.2422 0.763605C14.7219 5.14372 15.9805 7.85457 17.5183 11.1749C18.4799 13.2399 19.5435 15.5277 19.5435 18.5524C19.5452 19.174 19.4768 19.7937 19.3397 20.3991C18.7237 23.0872 16.7782 25.0157 14.2344 26.2347C11.5551 27.4394 8.65497 28.0397 5.73011 27.9949C4.09035 28.0017 2.45508 27.8186 0.855307 27.4491L0 27.2444L0.695768 26.6804C4.38733 23.683 3.56747 21.1268 2.56592 17.9839C1.77266 15.4641 0.83758 12.5667 1.79481 8.80974C2.55706 5.80779 4.73299 3.72007 7.47618 2.32826C10.9772 0.558926 15.4132 -0.068754 18.9541 -0.000527842H20L19.2422 0.763605Z" fill="#050D26"/>
<path fill-rule="evenodd" clip-rule="evenodd" d="M12.8515 21.4457H10.9592V23.3788C10.9592 23.62 11.0526 23.8514 11.2188 24.022C11.385 24.1926 11.6105 24.2884 11.8456 24.2884H11.9652C12.2003 24.2884 12.4257 24.1926 12.5919 24.022C12.7582 23.8514 12.8515 23.62 12.8515 23.3788V21.4457Z" fill="#050D26"/>
<path fill-rule="evenodd" clip-rule="evenodd" d="M14.9566 16.0468L13.5474 16.3742L13.7645 17.3521C13.8047 17.5296 13.9115 17.6836 14.0617 17.7807C14.2119 17.8778 14.3933 17.9102 14.5666 17.8707H14.6686C14.8415 17.8294 14.9916 17.7198 15.0862 17.5657C15.1808 17.4115 15.2122 17.2253 15.1738 17.0474L14.9566 16.0468Z" fill="#050D26"/>
<path fill-rule="evenodd" clip-rule="evenodd" d="M15.4043 15.5737L13.1885 16.0922L13.6051 21.0955H10.3833V9.58801H12.4307C13.4101 9.58801 13.8223 10.8525 14.1413 11.8076L15.4043 15.5737Z" fill="#050D26"/>
<path fill-rule="evenodd" clip-rule="evenodd" d="M7.56055 21.4457H9.47058V23.3788C9.47058 23.62 9.3772 23.8514 9.21099 24.022C9.04477 24.1926 8.81933 24.2884 8.58426 24.2884H8.44688C8.21181 24.2884 7.98637 24.1926 7.82015 24.022C7.65393 23.8514 7.56055 23.62 7.56055 23.3788V21.4457Z" fill="#050D26"/>
<path fill-rule="evenodd" clip-rule="evenodd" d="M5.47306 16.0468L6.87789 16.3742L6.64744 17.3521C6.60728 17.5296 6.50049 17.6836 6.35029 17.7807C6.20008 17.8778 6.01861 17.9102 5.84531 17.8707H5.74339C5.57048 17.8294 5.42041 17.7198 5.3258 17.5657C5.2312 17.4115 5.19971 17.2253 5.23818 17.0474L5.47306 16.0468Z" fill="#050D26"/>
<path fill-rule="evenodd" clip-rule="evenodd" d="M10.2148 5.42615C10.6413 5.45979 11.0468 5.63032 11.3737 5.91358C11.7006 6.19684 11.9323 6.57848 12.0362 7.00444L12.5104 9.22862H10.4585C10.8447 8.74404 11.104 8.16637 11.2119 7.55025C11.2119 7.27883 11.1068 7.01853 10.9198 6.82661C10.7329 6.63468 10.4792 6.52686 10.2148 6.52686C9.95033 6.52686 9.69671 6.63468 9.50971 6.82661C9.32271 7.01853 9.21766 7.27883 9.21766 7.55025C9.3256 8.16637 9.5849 8.74404 9.97104 9.22862H7.91919L8.41996 6.9999C8.52127 6.57382 8.75185 6.19179 9.07842 5.90894C9.40499 5.62608 9.81068 5.45702 10.2369 5.42615" fill="#050D26"/>
<path fill-rule="evenodd" clip-rule="evenodd" d="M5.021 15.5737L7.23682 16.0922L6.82024 21.0955H10.0332V9.58801H7.99906C7.01967 9.58801 6.60752 10.8525 6.28845 11.8076L5.021 15.5737Z" fill="#050D26"/>
</svg>
