<svg width="22" height="28" viewBox="0 0 22 28" fill="none" xmlns="http://www.w3.org/2000/svg">
<path d="M13.4839 2.30246C13.1618 2.39275 12.8541 2.5233 12.569 2.69061L12.1702 2.9288L11.9356 2.54505C11.629 2.03758 11.1959 1.60769 10.6735 1.29238C10.196 1.0082 9.64337 0.855406 9.07825 0.851292C8.65998 0.855439 8.24684 0.938377 7.86325 1.0952C7.47965 1.25202 7.1334 1.47955 6.84494 1.76434C6.17173 2.41599 5.74479 3.25747 5.62976 4.15942L5.57815 4.5167H5.19811C4.60921 4.5519 4.03497 4.70417 3.5133 4.96345C2.99164 5.22272 2.53443 5.58311 2.17188 6.02079C1.33254 7.00933 0.883253 8.24062 0.900389 9.50535C0.897615 10.2378 1.04414 10.964 1.33204 11.6446C1.60141 12.2911 2.01222 12.8771 2.53784 13.3648L2.85688 13.656L2.55661 13.9603C2.09446 14.4341 1.73578 14.9886 1.50094 15.5923C1.25151 16.2262 1.1244 16.8969 1.1256 17.5728C1.10654 18.8347 1.56179 20.0624 2.41116 21.0397C2.77218 21.467 3.22774 21.8153 3.74625 22.0606C4.26476 22.3058 4.83381 22.4421 5.41393 22.46H5.91596L5.85966 22.9364C5.85966 23.0113 5.85966 23.0819 5.85966 23.1525C5.85966 23.2231 5.85966 23.2848 5.85966 23.3686C5.85606 24.3581 6.26149 25.3102 6.99039 26.0239C7.35271 26.3726 7.78544 26.6498 8.26321 26.8391C8.74098 27.0285 9.25416 27.1262 9.77264 27.1267C10.5802 27.1345 11.3698 26.903 12.0294 26.465C12.6999 26.0137 13.2061 25.3792 13.4792 24.6478L13.6856 24.1008L14.1548 24.4493C14.4894 24.6872 14.8614 24.8747 15.2574 25.005C15.6397 25.1272 16.0407 25.1897 16.4444 25.1903C17.029 25.1808 17.6042 25.0502 18.1289 24.8078C18.6536 24.5653 19.115 24.217 19.48 23.7876C20.3353 22.8112 20.7941 21.5811 20.775 20.3163C20.7758 19.7345 20.6825 19.1559 20.4982 18.6005C20.3236 18.0665 20.0574 17.5629 19.7099 17.1096L19.4894 16.8229L19.7475 16.5671C20.1703 16.1419 20.5002 15.6429 20.7187 15.0983C20.966 14.5261 21.0996 13.9162 21.1128 13.2987C21.1203 12.3947 20.8621 11.5064 20.3668 10.7316C19.9259 10.0289 19.2517 9.48186 18.4478 9.17454L18.0303 9.02016L18.1851 8.6276C18.3056 8.33064 18.3952 8.02338 18.4525 7.71014C18.5112 7.39258 18.541 7.0709 18.5417 6.74858C18.5582 5.55998 18.1279 4.40404 17.3265 3.48456C16.9836 3.08165 16.5508 2.75435 16.0588 2.52572C15.5667 2.29709 15.0273 2.1727 14.4786 2.16131C14.1496 2.1601 13.8224 2.20469 13.5073 2.29364L13.4839 2.30246ZM12.4798 1.76434C12.7211 1.65162 12.9723 1.55864 13.2305 1.48645C13.6281 1.37646 14.0406 1.32149 14.4551 1.32325C15.1357 1.33231 15.8058 1.48202 16.418 1.76178C17.0302 2.04153 17.5694 2.44447 17.9974 2.94203C18.9285 4.01902 19.4268 5.3697 19.405 6.7574C19.4044 7.13001 19.3699 7.50188 19.3018 7.86893C19.2573 8.10005 19.1977 8.32837 19.1235 8.55261C19.9426 8.95629 20.6252 9.56746 21.094 10.3169C21.6782 11.2237 21.9835 12.265 21.9761 13.3251C21.9768 14.0327 21.8433 14.7347 21.582 15.3982C21.3584 15.9403 21.0414 16.444 20.6436 16.8891C20.9501 17.3409 21.1915 17.8288 21.3615 18.3403C21.574 18.9784 21.6816 19.6433 21.6805 20.3119C21.6976 21.7784 21.1624 23.2033 20.1697 24.3346C19.7171 24.8621 19.1457 25.2888 18.4967 25.584C17.8477 25.8791 17.1372 26.0354 16.4163 26.0416C15.9386 26.0327 15.4653 25.9539 15.0134 25.8078C14.7081 25.7095 14.4141 25.5824 14.136 25.4285C13.7786 26.1168 13.245 26.7109 12.5831 27.1575C11.6524 27.7853 10.5129 28.078 9.37191 27.9825C8.23097 27.887 7.16443 27.4095 6.36637 26.6371C5.45728 25.7628 4.95152 24.5868 4.95882 23.3642V23.2804C3.68956 23.1394 2.52766 22.5419 1.71677 21.6131C0.732263 20.4786 0.204051 19.0544 0.224766 17.5904C0.222826 16.8132 0.37066 16.0421 0.661106 15.3144C0.889231 14.7334 1.21387 14.19 1.62293 13.7045C1.14552 13.1943 0.764656 12.611 0.496892 11.9798C0.166484 11.1981 -0.00230893 10.3642 -0.000442351 9.523C-0.0148396 8.06083 0.507094 6.63865 1.47748 5.4959C2.30033 4.52225 3.48943 3.88278 4.7993 3.70951C4.99261 2.75097 5.4822 1.86725 6.20685 1.16887C6.57873 0.804316 7.02424 0.513164 7.51728 0.312459C8.01033 0.111754 8.541 0.00552794 9.07825 0C9.81258 0.00320111 10.5312 0.200364 11.152 0.568998C11.6746 0.880675 12.126 1.28701 12.4798 1.76434Z" fill="#050D26"/>
<path fill-rule="evenodd" clip-rule="evenodd" d="M13.7377 17.3523C14.6013 18.2353 15.1932 19.3224 15.4503 20.4972C15.5957 21.075 15.7881 21.7587 15.6145 22.1866C15.5549 22.3315 15.4571 22.4598 15.3304 22.5595C15.2036 22.6592 15.052 22.727 14.8897 22.7565C14.7275 22.786 14.5599 22.7764 14.4027 22.7284C14.2456 22.6804 14.1039 22.5956 13.9911 22.4821C13.475 21.944 13.7471 19.3592 11.739 18.1859L13.2826 17.0568L13.7377 17.3523Z" fill="#050D26"/>
<path fill-rule="evenodd" clip-rule="evenodd" d="M10.9512 18.155L13.1704 16.545L13.3393 16.4215L16.6236 18.6269C17.3649 19.1209 18.0312 18.9886 18.3971 18.5431C18.5437 18.3165 18.5924 18.0457 18.533 17.7864C18.4737 17.5272 18.3109 17.2991 18.0781 17.1493L14.4654 14.6351C13.6631 14.0749 12.9405 14.0485 12.2931 14.5072L10.848 15.5261C10.8151 15.1468 10.6087 14.2955 10.6087 13.6912C11.9365 12.8531 12.7951 12.0459 12.4151 10.2904C12.3165 9.81848 11.7113 8.81722 11.3219 8.72018C11.3219 9.74349 10.9981 9.91552 10.6087 10.4845C10.7448 11.027 10.8386 11.4681 10.1817 11.9092C10.033 11.5456 9.76034 11.2385 9.40642 11.0358C9.0525 10.8332 8.63718 10.7463 8.22525 10.7889C7.94985 10.8208 7.68458 10.9064 7.4464 11.0403C7.22641 11.1714 7.03787 11.3442 6.89277 11.5475C6.56903 11.349 5.63066 10.4404 5.63066 10.0611C5.75972 10.0562 5.88827 10.0429 6.01539 10.0214C6.15606 10.0148 6.29699 10.0148 6.43766 10.0214C6.38902 9.88005 6.32781 9.74283 6.25468 9.61117C5.9544 8.87897 6.15615 8.49964 6.15615 8.00562C5.45707 7.99135 4.77094 8.18424 4.19496 8.55698C2.92817 9.49207 3.44427 10.8462 4.23719 11.8431C4.60546 12.2977 5.02033 12.7173 5.47583 13.0957L6.31567 13.7397C6.53619 13.9294 6.44235 14.0441 6.54088 14.4719C6.84626 15.6012 7.27062 16.699 7.80767 17.7492C8.5959 19.1739 9.68441 19.0459 10.9512 18.155Z" fill="#050D26"/>
<path fill-rule="evenodd" clip-rule="evenodd" d="M6.70041 8.72016C6.70677 9.17575 6.88618 9.61419 7.20624 9.95634C7.52631 10.2985 7.96594 10.5218 8.44577 10.5859C8.84675 10.638 9.25491 10.5669 9.60934 10.383C9.92447 10.229 10.1904 9.99894 10.3798 9.71648C10.5692 9.43401 10.6753 9.10928 10.6873 8.77556C10.6993 8.44184 10.6167 8.11112 10.448 7.81729C10.2792 7.52347 10.0304 7.27709 9.72706 7.10342C9.4237 6.92974 9.07668 6.83501 8.72156 6.82893C8.36643 6.82284 8.01597 6.90562 7.70608 7.06879C7.39618 7.23196 7.13801 7.46964 6.95799 7.75749C6.77798 8.04534 6.68261 8.37301 6.68164 8.70692" fill="#050D26"/>
</svg>
