<svg width="24" height="28" viewBox="0 0 24 28" fill="none" xmlns="http://www.w3.org/2000/svg">
<path d="M12.253 0.19259L24 9.19181H19.1256V18.7951H24L12.0022 28.0131L0 18.7951H4.45053V9.19181H0L12.0022 0L12.253 0.19259ZM21.5087 8.35579L11.9935 1.06362L2.47828 8.35579H5.27663V19.6442H2.49126L12.0065 26.9364L21.5217 19.6442H18.2865V8.35579H21.5087Z" fill="#050D26"/>
<path fill-rule="evenodd" clip-rule="evenodd" d="M14.5888 21.1193H12.729V22.9795C12.729 23.2117 12.8201 23.4343 12.9824 23.5985C13.1446 23.7627 13.3646 23.8549 13.594 23.8549H13.7324C13.846 23.8549 13.9585 23.8323 14.0635 23.7883C14.1684 23.7443 14.2638 23.6798 14.3441 23.5985C14.4244 23.5172 14.4881 23.4207 14.5316 23.3145C14.5751 23.2083 14.5974 23.0945 14.5974 22.9795L14.5888 21.1193Z" fill="#050D26"/>
<path fill-rule="evenodd" clip-rule="evenodd" d="M16.6259 15.9237L15.2549 16.2389L15.4668 17.1843C15.505 17.3547 15.6084 17.5029 15.7543 17.5964C15.9002 17.69 16.0767 17.7212 16.2453 17.6833L16.3491 17.657C16.4324 17.6379 16.5112 17.6023 16.5808 17.5524C16.6505 17.5024 16.7098 17.439 16.7552 17.3658C16.8006 17.2926 16.8313 17.211 16.8454 17.1258C16.8596 17.0406 16.8571 16.9534 16.8379 16.8691L16.6259 15.9237Z" fill="#050D26"/>
<path fill-rule="evenodd" clip-rule="evenodd" d="M17.0668 15.4728L14.9043 15.9718L15.3368 20.7866H12.1665V9.71265H14.1604C15.1206 9.71265 15.5228 10.9295 15.8342 11.8443L17.0668 15.4728Z" fill="#050D26"/>
<path fill-rule="evenodd" clip-rule="evenodd" d="M9.41124 21.1193H11.271V22.9795C11.271 23.2117 11.1799 23.4343 11.0177 23.5985C10.8555 23.7627 10.6354 23.8549 10.406 23.8549H10.2676C10.0382 23.8549 9.81817 23.7627 9.65595 23.5985C9.49372 23.4343 9.40259 23.2117 9.40259 22.9795L9.41124 21.1193Z" fill="#050D26"/>
<path fill-rule="evenodd" clip-rule="evenodd" d="M7.37428 15.9237L8.74534 16.2389L8.53341 17.1843C8.4952 17.3547 8.39184 17.5029 8.24594 17.5964C8.10004 17.69 7.92348 17.7212 7.75489 17.6833L7.65109 17.657C7.5678 17.6379 7.48906 17.6023 7.41938 17.5524C7.3497 17.5024 7.29046 17.439 7.24505 17.3658C7.19964 17.2926 7.16897 17.211 7.15477 17.1258C7.14058 17.0406 7.14315 16.9534 7.16235 16.8691L7.37428 15.9237Z" fill="#050D26"/>
<path fill-rule="evenodd" clip-rule="evenodd" d="M12.0023 5.69019C12.4177 5.72187 12.8126 5.88527 13.131 6.15715C13.4493 6.42904 13.6749 6.79558 13.7756 7.20465L14.2427 9.3494H12.2402C12.6165 8.88776 12.8697 8.33621 12.9754 7.7474C12.9843 7.61284 12.9658 7.47787 12.921 7.35085C12.8762 7.22384 12.8062 7.10748 12.7151 7.009C12.6241 6.91051 12.5141 6.832 12.3918 6.77832C12.2696 6.72464 12.1377 6.69694 12.0045 6.69694C11.8712 6.69694 11.7394 6.72464 11.6171 6.77832C11.4949 6.832 11.3848 6.91051 11.2938 7.009C11.2028 7.10748 11.1327 7.22384 11.0879 7.35085C11.0431 7.47787 11.0246 7.61284 11.0335 7.7474C11.1364 8.34238 11.3897 8.90029 11.7687 9.36691H9.75757L10.2247 7.22215C10.3224 6.80918 10.5473 6.43828 10.8668 6.16295C11.1862 5.88762 11.5839 5.72208 12.0023 5.69019Z" fill="#050D26"/>
<path fill-rule="evenodd" clip-rule="evenodd" d="M6.92017 15.4728L9.08272 15.9718L8.67183 20.7866H11.8119V9.71265H9.83961C8.87944 9.71265 8.48153 10.9295 8.17012 11.8443L6.92017 15.4728Z" fill="#050D26"/>
</svg>
