<svg width="18" height="28" viewBox="0 0 18 28" fill="none" xmlns="http://www.w3.org/2000/svg">
<path d="M3.22739 24.6982C4.79754 26.2485 6.85453 27.1227 8.99794 27.1505C11.1415 27.1235 13.1988 26.2492 14.7685 24.6982C15.5155 23.997 16.1174 23.1387 16.536 22.1776C16.9546 21.2165 17.1808 20.1736 17.2004 19.1148C17.2004 16.6406 16.2276 13.5752 14.8592 10.6412C13.2779 7.26783 11.3091 4.11566 8.99794 1.2568C6.68959 4.11701 4.72235 7.26898 3.14083 10.6412C1.77238 13.5752 0.799634 16.6406 0.799634 19.1148C0.819155 20.1732 1.04497 21.2158 1.46283 22.1767C1.88069 23.1377 2.48151 23.9963 3.22739 24.6982ZM8.99794 28C6.65419 27.9701 4.40477 27.0148 2.68743 25.32C1.86067 24.5387 1.19509 23.5841 0.732583 22.5161C0.270072 21.4482 0.0206448 20.2901 0 19.1148C0 16.4873 1.00572 13.3212 2.42775 10.269C4.1023 6.68089 6.21284 3.34178 8.70529 0.337191L8.99794 0L9.29471 0.337191C11.7872 3.34178 13.8977 6.68089 15.5722 10.269C16.9943 13.3344 18 16.483 18 19.1148C17.9796 20.2906 17.7298 21.4491 17.2666 22.5172C16.8033 23.5852 16.1365 24.5396 15.3085 25.32C13.5915 27.0155 11.3418 27.9709 8.99794 28Z" fill="#050D26"/>
<path fill-rule="evenodd" clip-rule="evenodd" d="M11.4669 21.2256H9.69043V23.0867C9.69043 23.319 9.77728 23.5418 9.93188 23.706C10.0865 23.8703 10.2962 23.9625 10.5148 23.9625H10.6467C10.8653 23.9625 11.075 23.8703 11.2296 23.706C11.3842 23.5418 11.4711 23.319 11.4711 23.0867L11.4669 21.2256Z" fill="#050D26"/>
<path fill-rule="evenodd" clip-rule="evenodd" d="M13.4082 16.0276L12.1016 16.3429L12.3035 17.2844C12.3399 17.4549 12.4384 17.6032 12.5775 17.6967C12.7165 17.7903 12.8848 17.8215 13.0455 17.7836H13.1444C13.2254 17.7632 13.3017 17.7257 13.3688 17.6734C13.4359 17.6211 13.4925 17.555 13.5352 17.4791C13.5778 17.4031 13.6057 17.3189 13.6172 17.2313C13.6286 17.1437 13.6235 17.0545 13.6019 16.9691L13.4082 16.0276Z" fill="#050D26"/>
<path fill-rule="evenodd" clip-rule="evenodd" d="M13.8287 15.5765L11.7678 16.0713L12.1594 20.8883H9.15869V9.8092H11.0589C11.9739 9.8092 12.3531 11.031 12.6499 11.9462L13.8287 15.5765Z" fill="#050D26"/>
<path fill-rule="evenodd" clip-rule="evenodd" d="M6.52878 21.2256H8.30529V23.0867C8.30529 23.319 8.21843 23.5418 8.06383 23.706C7.90924 23.8703 7.69956 23.9625 7.48092 23.9625H7.34902C7.13039 23.9625 6.92071 23.8703 6.76611 23.706C6.61151 23.5418 6.52466 23.319 6.52466 23.0867L6.52878 21.2256Z" fill="#050D26"/>
<path fill-rule="evenodd" clip-rule="evenodd" d="M4.58768 16.0276L5.89842 16.3429L5.69645 17.2844C5.65914 17.4562 5.5592 17.6052 5.41855 17.6988C5.27791 17.7924 5.10806 17.8229 4.94628 17.7836H4.85148C4.69066 17.7439 4.55108 17.6384 4.46309 17.49C4.3751 17.3416 4.34581 17.1622 4.38159 16.991L4.58768 16.0276Z" fill="#050D26"/>
<path fill-rule="evenodd" clip-rule="evenodd" d="M8.99765 5.80237C9.39459 5.83411 9.77199 5.99806 10.0761 6.27088C10.3803 6.5437 10.5957 6.91149 10.6917 7.32192L11.1286 9.4633H9.22435C9.58491 8.9977 9.82626 8.44113 9.92506 7.84741C9.92506 7.71802 9.90107 7.58989 9.85447 7.47035C9.80786 7.35081 9.73955 7.24219 9.65343 7.1507C9.56731 7.05921 9.46508 6.98663 9.35256 6.93711C9.24004 6.8876 9.11944 6.86211 8.99765 6.86211C8.87586 6.86211 8.75527 6.8876 8.64275 6.93711C8.53023 6.98663 8.42799 7.05921 8.34187 7.1507C8.25576 7.24219 8.18744 7.35081 8.14084 7.47035C8.09423 7.58989 8.07024 7.71802 8.07024 7.84741C8.17063 8.4406 8.41181 8.99676 8.77095 9.4633H6.86255L7.30771 7.31754C7.40366 6.90828 7.61862 6.54157 7.92201 6.26956C8.2254 5.99754 8.60179 5.83406 8.99765 5.80237Z" fill="#050D26"/>
<path fill-rule="evenodd" clip-rule="evenodd" d="M4.17114 15.5765L6.23205 16.0713L5.81987 20.8883H8.81231V9.8092H6.93688C6.02596 9.8092 5.64263 11.031 5.34586 11.9462L4.17114 15.5765Z" fill="#050D26"/>
</svg>
