<svg width="88" height="88" viewBox="0 0 88 88" fill="none" xmlns="http://www.w3.org/2000/svg">
<path d="M73.3333 25.6665H14.6666C10.6165 25.6665 7.33325 28.9497 7.33325 32.9998V69.6665C7.33325 73.7166 10.6165 76.9998 14.6666 76.9998H73.3333C77.3833 76.9998 80.6666 73.7166 80.6666 69.6665V32.9998C80.6666 28.9497 77.3833 25.6665 73.3333 25.6665Z" stroke="#FF0000" stroke-width="2" stroke-linecap="round" stroke-linejoin="round"/>
<path d="M59 75V18.1111C59 16.2251 58.2098 14.4164 56.8033 13.0828C55.3968 11.7492 53.4891 11 51.5 11H36.5C34.5109 11 32.6032 11.7492 31.1967 13.0828C29.7902 14.4164 29 16.2251 29 18.1111V75" stroke="white" stroke-width="2" stroke-linecap="round" stroke-linejoin="round"/>
</svg>
