<svg width="24" height="34" viewBox="0 0 24 34" fill="none" xmlns="http://www.w3.org/2000/svg">
<path d="M11.9997 0.333008C5.54968 0.333008 0.333008 5.54967 0.333008 11.9997C0.333008 14.8997 1.16634 17.6163 2.68301 20.0663C4.26634 22.633 6.34968 24.833 7.94968 27.3997C8.73301 28.6497 9.29968 29.8163 9.89968 31.1663C10.333 32.083 10.683 33.6663 11.9997 33.6663C13.3163 33.6663 13.6663 32.083 14.083 31.1663C14.6997 29.8163 15.2497 28.6497 16.033 27.3997C17.633 24.8497 19.7163 22.6497 21.2997 20.0663C22.833 17.6163 23.6663 14.8997 23.6663 11.9997C23.6663 5.54967 18.4497 0.333008 11.9997 0.333008ZM11.9997 16.583C9.69968 16.583 7.83301 14.7163 7.83301 12.4163C7.83301 10.1163 9.69968 8.24967 11.9997 8.24967C14.2997 8.24967 16.1663 10.1163 16.1663 12.4163C16.1663 14.7163 14.2997 16.583 11.9997 16.583Z" fill="#FF0000"/>
</svg>
