<svg width="80" height="122" viewBox="0 0 80 122" fill="none" xmlns="http://www.w3.org/2000/svg">
<path d="M17.9225 10.6428L10.7838 16.3019L13.6117 19.8798L17.9225 25.8775L13.3471 28.9256L1.89771 59.8374L0.955078 97.916H11.9966L13.2093 70.0248L18.8651 53.9216L17.9225 114.325L20.6181 116.461L20.2102 120.361L30.0445 121L31.3895 66.4196L28.3356 24.064" stroke="white" stroke-linecap="round" stroke-linejoin="round"/>
<path d="M30.083 119.268L40.3638 119.263" stroke="white" stroke-linecap="round" stroke-linejoin="round"/>
<path d="M15.1331 21.9984L24.7303 14.4657L31.3894 20.387L24.5208 28.6571L18.0712 30.263" stroke="white" stroke-linecap="round" stroke-linejoin="round"/>
<path d="M31.3894 20.3866C31.3894 20.3866 34.3331 23.5439 35.6561 24.03C36.7145 24.4233 40.1928 24.5763 40.1928 24.5763" stroke="white" stroke-linecap="round" stroke-linejoin="round"/>
<path d="M12.5037 14.9409L19.8739 24.8552L20.3479 29.6949" stroke="white" stroke-linecap="round" stroke-linejoin="round"/>
<path d="M24.521 28.6575L27.2166 119.268L30.0831 117.263H40.193" stroke="white" stroke-linecap="round" stroke-linejoin="round"/>
<path d="M40.0498 14.4271C39.278 14.3944 38.9473 13.8372 38.0763 14.0666C37.4809 14.2196 36.9738 14.7276 36.2131 14.4927C35.298 14.2032 35.5571 13.7334 34.394 13.9464C33.7545 14.0721 33.0324 14.4108 32.3268 14.236C31.7094 14.0775 31.1857 13.6296 30.5352 13.4985C29.6477 13.3183 29.2673 13.8754 28.4901 14.0721C27.7128 14.2687 25.122 13.1162 24.8629 14.3015C23.358 14.3998 22.5035 13.9355 21.0041 13.8154C19.3063 13.6788 19.0637 15.1646 17.9612 14.449C15.9988 13.1653 18.4188 11.2535 17.9612 10.6253C16.7761 10.4505 16.4288 8.95379 16.743 8.35292C17.0572 7.75206 18.1101 7.57726 18.5235 7.00371C18.937 6.43015 18.7771 5.77466 19.422 5.28304C20.1442 4.7368 20.9931 4.7368 21.8365 4.7368C22.3075 4.0768 22.9987 3.60283 23.7879 3.39851C24.7912 3.22371 25.8772 3.51322 26.9576 3.39851C27.5089 1.62868 28.7822 2.68839 30.1108 2.69932C30.9928 2.69932 31.1416 2.15307 31.8141 1.98374C32.4866 1.8144 32.9717 2.28417 33.5009 2.45351C34.7412 2.8468 35.5626 1.6833 36.8636 1.87995C37.6904 2.00012 37.7841 2.06567 38.5504 1.56313C39.0434 1.19089 39.6507 0.998025 40.2703 1.01689" stroke="white" stroke-linecap="round" stroke-linejoin="round"/>
<path d="M24.9014 41.3518H29.5815" stroke="white" stroke-linecap="round" stroke-linejoin="round"/>
<path d="M29.5815 18.7814H40.1931" stroke="white" stroke-linecap="round" stroke-linejoin="round"/>
<path d="M30.8325 88.8418L35.7882 89.3771L40.1927 89.3116" stroke="white" stroke-linecap="round" stroke-linejoin="round"/>
<path d="M18.9643 53.9211L18.0161 26.0135" stroke="white" stroke-linecap="round" stroke-linejoin="round"/>
<path d="M35.7886 65.9274V117.263" stroke="white" stroke-linecap="round" stroke-linejoin="round"/>
<path d="M31.2573 75.7161H34.5979H37.4644L40.1931 75.6505" stroke="white" stroke-linecap="round" stroke-linejoin="round"/>
<path d="M31.395 65.7578L40.1929 65.8234" stroke="white" stroke-linecap="round" stroke-linejoin="round"/>
<path d="M31.395 84.0409L40.1929 84.101" stroke="white" stroke-linecap="round" stroke-linejoin="round"/>
<path d="M62.0773 10.6428L69.216 16.3019L66.3826 19.8798L62.0773 25.8775L66.6527 28.9256L78.1021 59.8374L79.0448 97.916H68.0033L66.7905 70.0248L61.1347 53.9216L62.0773 114.325L59.3817 116.461L59.7897 120.361L49.9554 121L48.6104 66.4196L51.6643 24.064" stroke="white" stroke-linecap="round" stroke-linejoin="round"/>
<path d="M49.9116 119.268L39.6309 119.263" stroke="white" stroke-linecap="round" stroke-linejoin="round"/>
<path d="M64.8667 21.9984L55.2694 14.4657L48.6104 20.387L55.4789 28.6571L61.9285 30.263" stroke="white" stroke-linecap="round" stroke-linejoin="round"/>
<path d="M48.6382 20.3866C48.6382 20.3866 45.6945 23.5439 44.3715 24.03C43.3076 24.4233 39.8347 24.5763 39.8347 24.5763" stroke="white" stroke-linecap="round" stroke-linejoin="round"/>
<path d="M67.4961 14.9409L60.1259 24.8552L59.6519 29.6949" stroke="white" stroke-linecap="round" stroke-linejoin="round"/>
<path d="M55.4791 28.6575L52.7835 119.268L49.9115 117.263H39.8071" stroke="white" stroke-linecap="round" stroke-linejoin="round"/>
<path d="M39.9449 14.4278C40.7221 14.395 41.0473 13.8379 41.9238 14.0673C42.5192 14.2202 43.0263 14.7282 43.7871 14.4933C44.7021 14.2038 44.443 13.7341 45.6062 13.9471C46.2456 14.0727 46.9622 14.4114 47.6734 14.2366C48.2908 14.0782 48.8089 13.6303 49.4649 13.4992C50.3469 13.3189 50.7328 13.8761 51.51 14.0727C52.2873 14.2694 54.8782 13.1168 55.1317 14.3022C56.6422 14.4005 57.4966 13.9362 58.9905 13.816C60.6883 13.6794 60.9309 15.1652 62.0334 14.4496C63.9958 13.166 61.5758 11.2541 62.0334 10.6259C63.213 10.4511 63.5658 8.95444 63.2516 8.35358C62.9374 7.75271 61.8845 7.57791 61.4711 7.00436C61.0577 6.4308 61.1789 5.75892 60.5505 5.26731C59.8339 4.72106 58.985 4.72106 58.1416 4.72106C57.6705 4.06106 56.9794 3.5871 56.1901 3.38277C55.253 3.20251 54.1505 3.49202 53.048 3.38277C52.4968 1.61294 51.2234 2.67265 49.8949 2.68358C49.0129 2.68358 48.8641 2.13734 48.186 1.968C47.508 1.79867 47.0339 2.26843 46.5323 2.43777C45.292 2.83106 44.4651 1.66757 43.1697 1.86422C42.3373 1.98439 42.2491 2.04994 41.4828 1.54739C40.9893 1.17595 40.3824 0.983178 39.7629 1.00115" stroke="white" stroke-linecap="round" stroke-linejoin="round"/>
<path d="M55.0986 41.3518H50.4185" stroke="white" stroke-linecap="round" stroke-linejoin="round"/>
<path d="M50.4187 18.7814H39.8071" stroke="white" stroke-linecap="round" stroke-linejoin="round"/>
<path d="M49.1618 88.8418L44.2116 89.3771L39.8071 89.3116" stroke="white" stroke-linecap="round" stroke-linejoin="round"/>
<path d="M61.0303 53.9211L61.9839 26.0135" stroke="white" stroke-linecap="round" stroke-linejoin="round"/>
<path d="M44.2061 65.9274V117.263" stroke="white" stroke-linecap="round" stroke-linejoin="round"/>
<path d="M48.7429 75.7161H45.4023H42.5358L39.8071 75.6505" stroke="white" stroke-linecap="round" stroke-linejoin="round"/>
<path d="M48.5995 65.7578L39.8071 65.8234" stroke="white" stroke-linecap="round" stroke-linejoin="round"/>
<path d="M30.8384 97.4351L40.0332 97.5006" stroke="white" stroke-linecap="round" stroke-linejoin="round"/>
<path d="M49.1617 97.4351L39.6196 97.5006" stroke="white" stroke-linecap="round" stroke-linejoin="round"/>
<path d="M48.5995 84.0409L39.8071 84.101" stroke="white" stroke-linecap="round" stroke-linejoin="round"/>
</svg>
