<svg width="77" height="120" viewBox="0 0 77 120" fill="none" xmlns="http://www.w3.org/2000/svg">
<g clip-path="url(#clip0_287_633)">
<path d="M38.4999 13.1246C38.4999 13.1246 34.3004 8.71188 33.6122 6.84539C33.0422 5.30257 33.3379 0.269531 33.3379 0.269531C33.3379 0.269531 31.3 3.60871 30.1762 4.15355C29.3481 4.55814 27.2887 4.2075 26.5413 4.75234C25.7939 5.29718 24.7346 8.28032 24.7346 8.28032C24.7346 8.28032 18.2337 9.31606 17.0453 10.9776C11.7005 18.4003 0.268799 44.542 0.268799 44.542" stroke="white" stroke-linecap="round" stroke-linejoin="round"/>
<path d="M0.268799 44.5419C0.268799 44.5419 7.9688 46.3922 10.0444 47.9188C12.663 49.877 17.6691 58.5621 17.6691 58.5621C17.6691 58.5621 9.71636 54.4839 7.42034 52.585C5.3394 50.8804 0.268799 44.5419 0.268799 44.5419Z" stroke="white" stroke-linecap="round" stroke-linejoin="round"/>
<path d="M19.3842 34.4059L17.6689 58.5623V114.525C17.6689 114.525 20.7393 117.902 38.4998 119.692C43.8339 120.232 59.3307 114.525 59.3307 114.525" stroke="white" stroke-linecap="round" stroke-linejoin="round"/>
<path d="M38.5 13.1246C38.5 13.1246 42.6995 8.71188 43.3878 6.84539C43.9578 5.30257 43.6835 0.269531 43.6835 0.269531C43.6835 0.269531 45.7053 3.60871 46.8399 4.15355C47.6733 4.55813 49.7327 4.20749 50.4802 4.75234C51.2276 5.29718 52.2654 8.28032 52.2654 8.28032C52.2654 8.28032 58.7609 9.31606 59.9546 10.9776C65.2994 18.4057 76.7311 44.5473 76.7311 44.5473" stroke="white" stroke-linecap="round" stroke-linejoin="round"/>
<path d="M76.7311 44.5419C76.7311 44.5419 69.0311 46.3922 66.9555 47.9188C64.3369 49.877 59.3308 58.5621 59.3308 58.5621C59.3308 58.5621 67.2835 54.4623 69.5796 52.585C71.6605 50.8804 76.7311 44.5419 76.7311 44.5419Z" stroke="white" stroke-linecap="round" stroke-linejoin="round"/>
<path d="M24.7346 8.28027C32.0905 18.2654 38.5 18.1737 38.5 18.1737" stroke="white" stroke-miterlimit="10"/>
<path d="M52.2654 8.28027C44.9041 18.2654 38.5 18.1737 38.5 18.1737" stroke="white" stroke-miterlimit="10"/>
<path d="M38.4999 46.6027H24.8636L21.304 58.0821L22.9386 69.4321H38.4999" stroke="white" stroke-miterlimit="10"/>
<path d="M38.5 46.6027H52.1309L55.696 58.0821L54.0613 69.4321H38.5" stroke="white" stroke-miterlimit="10"/>
<path d="M57.6155 34.4059L59.3308 58.5623V114.525" stroke="white" stroke-miterlimit="10"/>
<path d="M37.0105 13.6641C37.0116 13.8427 36.9597 14.0176 36.8614 14.1666C36.7632 14.3155 36.623 14.4318 36.4587 14.5007C36.2944 14.5696 36.1134 14.5878 35.9387 14.5533C35.764 14.5187 35.6035 14.4328 35.4776 14.3064C35.3517 14.1801 35.2661 14.0191 35.2316 13.8439C35.1971 13.6686 35.2154 13.487 35.284 13.3222C35.3526 13.1574 35.4685 13.0167 35.617 12.9181C35.7655 12.8196 35.9399 12.7675 36.1179 12.7686C36.3547 12.7686 36.5817 12.8629 36.7491 13.0309C36.9165 13.1988 37.0105 13.4266 37.0105 13.6641V13.6641Z" stroke="white" stroke-miterlimit="10"/>
<path d="M41.6885 13.6641C41.6896 13.8425 41.6378 14.0172 41.5398 14.166C41.4418 14.3149 41.3019 14.4312 41.1379 14.5002C40.9739 14.5692 40.7932 14.5878 40.6187 14.5537C40.4441 14.5195 40.2836 14.4341 40.1575 14.3084C40.0314 14.1826 39.9453 14.0221 39.9102 13.8472C39.8751 13.6723 39.8926 13.4909 39.9604 13.326C40.0282 13.161 40.1433 13.02 40.2911 12.9208C40.4389 12.8215 40.6127 12.7686 40.7905 12.7686C40.9082 12.7679 41.0249 12.7905 41.1338 12.8352C41.2427 12.8799 41.3417 12.9457 41.4252 13.0289C41.5086 13.1122 41.5749 13.2111 41.6201 13.3201C41.6653 13.4291 41.6885 13.546 41.6885 13.6641V13.6641Z" stroke="white" stroke-miterlimit="10"/>
<path d="M35.9943 13.8419C35.9943 15.73 35.3867 17.2566 35.2092 19.0853C35.0544 20.1874 35.2186 21.311 35.6824 22.322C36.2495 23.5317 36.9131 24.6935 37.6666 25.7961" stroke="white" stroke-miterlimit="10"/>
<path d="M40.7045 13.5994C40.7045 15.6331 41.1938 17.3755 41.4626 19.2366C41.6684 21.3878 41.7384 23.5499 41.6723 25.71C41.477 27.1998 41.1787 28.6742 40.7797 30.1226C40.242 31.9837 40.1667 35.9756 40.1667 37.95" stroke="white" stroke-miterlimit="10"/>
<path d="M18.3572 24.2426L19.3842 34.2817L17.6689 39.8811" stroke="white" stroke-miterlimit="10"/>
<path d="M58.6425 24.2426L57.6155 34.2817L59.3308 39.8811" stroke="white" stroke-miterlimit="10"/>
<path d="M33.3164 0.269531H43.6834" stroke="white" stroke-linecap="round" stroke-linejoin="round"/>
</g>
<defs>
<clipPath id="clip0_287_633">
<rect width="77" height="120" fill="white"/>
</clipPath>
</defs>
</svg>
