<svg width="104" height="122" viewBox="0 0 104 122" fill="none" xmlns="http://www.w3.org/2000/svg">
<path d="M18.8599 112.086C40.192 120.246 63.7803 120.246 85.1124 112.086C63.5486 105.299 40.4237 105.299 18.8599 112.086V112.086Z" stroke="white" stroke-linecap="round" stroke-linejoin="round"/>
<path d="M52.0141 1.00265C52.0141 1.00265 44.432 0.897619 42.2637 2.01091C38.8504 3.76837 33.9192 10.7282 33.3456 14.5302C33.0729 16.3296 34.6117 21.7071 34.6117 21.7071C34.6117 21.7071 20.8464 26.1672 17.6219 30.7604C12.4739 38.2174 4.85678 55.1338 3.13611 64.0471C0.569107 77.3786 1.27556 118.283 1.27556 118.283C3.29577 119.96 5.8213 120.907 8.44499 120.972C13.1733 120.972 15.3766 118.283 15.3766 118.283C15.3766 118.283 16.2229 94.4 17.6219 86.572C17.9506 84.7235 18.755 81.6707 19.6853 78.4639C21.4689 72.2603 23.6861 65.4475 23.6861 65.4475C23.6861 65.4475 23.5393 84.2964 22.8678 90.535C22.2802 95.9965 18.9019 112.129 18.9019 112.129" stroke="white" stroke-miterlimit="10"/>
<path d="M28.4912 84.7661V71.2876L26.5957 58.5933" stroke="white" stroke-miterlimit="10"/>
<path d="M1.22656 114.544C4.16428 117.912 10.1027 117.59 10.1027 117.59L10.2635 120.608" stroke="white" stroke-miterlimit="10"/>
<path d="M23.6439 66.4133C23.6439 66.4133 23.7208 58.2702 23.6439 55.5605C23.5669 52.6057 23.0144 43.7484 23.0144 43.7484L19.5171 36.3615L5.99658 63.1785C5.99658 63.1785 8.26982 69.186 19.573 78.7435" stroke="white" stroke-miterlimit="10"/>
<path d="M22.9795 88.9108L29.2536 93.9241L30.8134 109.034" stroke="white" stroke-miterlimit="10"/>
<path d="M20.2378 28.3378C28.6313 28.6598 37.7242 32.3848 37.7242 32.3848L42.0119 28.1347L34.6116 21.707L37.4724 19.1794L45.3973 19.8795C45.3973 19.8795 39.0672 13.5779 38.3677 9.83892C38.2208 9.04772 37.969 5.88989 37.969 5.88989" stroke="white" stroke-miterlimit="10"/>
<path d="M42.0049 28.1344L48.0762 31.4323" stroke="white" stroke-miterlimit="10"/>
<path d="M38.1089 7.47887C39.6442 6.59288 41.2434 5.82287 42.8932 5.17527C45.1035 4.60112 51.9861 4.59412 51.9861 4.59412" stroke="white" stroke-miterlimit="10"/>
<path d="M38.3257 9.53814C39.8256 9.12379 41.3515 8.81034 42.8931 8.5999C45.3972 8.47387 51.9861 8.55089 51.9861 8.55089" stroke="white" stroke-miterlimit="10"/>
<path d="M41.571 15.5383C44.9789 16.4408 48.4888 16.8997 52.0139 16.9037" stroke="white" stroke-miterlimit="10"/>
<path d="M45.9779 17.7229V21.4549L43.5298 24.5497" stroke="white" stroke-miterlimit="10"/>
<path d="M51.9861 1.00265C51.9861 1.00265 59.5892 0.897619 61.7365 2.01091C65.1848 3.76837 70.081 10.7282 70.6546 14.5302C70.9204 16.3296 69.3816 21.7071 69.3816 21.7071C69.3816 21.7071 83.1539 26.1672 86.3434 30.7604C91.5264 38.2174 99.1365 55.1338 100.857 64.0471C103.431 77.3506 102.725 118.311 102.725 118.311C100.704 119.988 98.1789 120.935 95.5552 121C90.8199 121 88.6166 118.311 88.6166 118.311C88.6166 118.311 87.7843 94.4 86.4063 86.572C86.0776 84.7235 85.2662 81.6707 84.308 78.4639C82.5244 72.2603 80.3071 65.4475 80.3071 65.4475C80.3071 65.4475 80.454 84.2964 81.1255 90.535C81.706 95.9965 85.0844 112.129 85.0844 112.129" stroke="white" stroke-miterlimit="10"/>
<path d="M75.502 84.7661V71.2876L77.3975 58.5933" stroke="white" stroke-miterlimit="10"/>
<path d="M102.773 114.544C99.8357 117.912 93.8624 117.583 93.8624 117.583L93.7085 120.601" stroke="white" stroke-linecap="round" stroke-linejoin="round"/>
<path d="M80.349 66.4137C80.349 66.4137 80.279 58.2705 80.349 55.5608C80.4329 52.6061 80.9855 43.7488 80.9855 43.7488L84.4827 36.3408L98.0033 63.1788C98.0033 63.1788 95.73 69.1864 84.4198 78.7439" stroke="white" stroke-miterlimit="10"/>
<path d="M81.0133 88.9108L74.7462 93.9241L73.1794 109.034" stroke="white" stroke-miterlimit="10"/>
<path d="M83.7555 28.3378C75.362 28.6598 66.2691 32.3848 66.2691 32.3848L61.9814 28.1347L69.3817 21.707L66.5279 19.1794L58.603 19.8795C58.603 19.8795 64.8981 13.5779 65.5976 9.83892C65.7445 9.04772 65.9963 5.88989 65.9963 5.88989" stroke="white" stroke-miterlimit="10"/>
<path d="M61.9953 28.1344L55.917 31.4323" stroke="white" stroke-miterlimit="10"/>
<path d="M65.8843 7.47887C64.349 6.59288 62.7498 5.82287 61.1 5.17527C58.8897 4.60112 52.0071 4.59412 52.0071 4.59412" stroke="white" stroke-miterlimit="10"/>
<path d="M65.6743 9.53814C64.1742 9.12456 62.6484 8.81112 61.1069 8.5999C58.6028 8.47387 52.0139 8.55089 52.0139 8.55089" stroke="white" stroke-miterlimit="10"/>
<path d="M62.429 15.5383C59.0211 16.4408 55.5112 16.8997 51.9861 16.9037" stroke="white" stroke-miterlimit="10"/>
<path d="M58.0154 17.7229V21.4549L60.4635 24.5497" stroke="white" stroke-miterlimit="10"/>
<path d="M52.1189 19.1373V106.996" stroke="white" stroke-miterlimit="10"/>
<path d="M58.0154 38.8472V58.5923" stroke="white" stroke-miterlimit="10"/>
</svg>
