<svg width="115" height="74" viewBox="0 0 115 74" fill="none" xmlns="http://www.w3.org/2000/svg">
<path d="M89.7856 73V65C89.7856 60.7565 88.0848 56.6869 85.0574 53.6863C82.0301 50.6857 77.9241 49 73.6427 49H41.357C37.0756 49 32.9696 50.6857 29.9422 53.6863C26.9149 56.6869 25.2141 60.7565 25.2141 65V73" stroke="#FF0000" stroke-width="2" stroke-linecap="round" stroke-linejoin="round"/>
<path d="M57.5 33C66.4155 33 73.6429 25.8366 73.6429 17C73.6429 8.16344 66.4155 1 57.5 1C48.5846 1 41.3572 8.16344 41.3572 17C41.3572 25.8366 48.5846 33 57.5 33Z" stroke="#FF0000" stroke-width="2" stroke-linecap="round" stroke-linejoin="round"/>
<path d="M114 72.9995V64.9995C113.997 61.4544 112.807 58.0106 110.615 55.2088C108.424 52.407 105.356 50.4058 101.893 49.5195" stroke="white" stroke-width="2" stroke-linecap="round" stroke-linejoin="round"/>
<path d="M85.75 1.51953C89.2224 2.40074 92.3001 4.40234 94.498 7.20877C96.6958 10.0152 97.8888 13.4669 97.8888 17.0195C97.8888 20.5722 96.6958 24.0239 94.498 26.8303C92.3001 29.6367 89.2224 31.6383 85.75 32.5195" stroke="white" stroke-width="2" stroke-linecap="round" stroke-linejoin="round"/>
<path d="M1.00003 72.9995V64.9995C1.0027 61.4544 2.19316 58.0106 4.38452 55.2088C6.57587 52.407 9.64401 50.4058 13.1072 49.5195" stroke="white" stroke-width="2" stroke-linecap="round" stroke-linejoin="round"/>
<path d="M29.25 1.51953C25.7776 2.40074 22.6999 4.40234 20.502 7.20877C18.3042 10.0152 17.1112 13.4669 17.1112 17.0195C17.1112 20.5722 18.3042 24.0239 20.502 26.8303C22.6999 29.6367 25.7776 31.6383 29.25 32.5195" stroke="white" stroke-width="2" stroke-linecap="round" stroke-linejoin="round"/>
</svg>
