<svg width="32" height="32" viewBox="0 0 32 32" fill="none" xmlns="http://www.w3.org/2000/svg">
<path d="M12.7867 6.12002C13.0965 5.80844 13.4784 5.57821 13.8986 5.44981C14.3187 5.3214 14.7641 5.2988 15.1951 5.38401C15.6261 5.46921 16.0294 5.65959 16.3691 5.93821C16.7088 6.21683 16.9744 6.57507 17.1423 6.98107C17.3101 7.38708 17.3751 7.82827 17.3314 8.26544C17.2876 8.7026 17.1366 9.12218 16.8916 9.4869C16.6467 9.85161 16.3154 10.1501 15.9272 10.356C15.5391 10.5618 15.1061 10.6685 14.6667 10.6667H2.66675M16.7867 25.88C17.0965 26.1916 17.4784 26.4218 17.8986 26.5502C18.3187 26.6786 18.7641 26.7012 19.1951 26.616C19.6261 26.5308 20.0294 26.3404 20.3691 26.0618C20.7088 25.7832 20.9744 25.425 21.1423 25.019C21.3101 24.613 21.3751 24.1718 21.3314 23.7346C21.2876 23.2974 21.1366 22.8779 20.8916 22.5131C20.6467 22.1484 20.3154 21.8499 19.9272 21.6441C19.5391 21.4382 19.1061 21.3315 18.6667 21.3334H2.66675M23.6401 10.3067C24.0279 9.91987 24.505 9.63457 25.0293 9.47603C25.5536 9.3175 26.1089 9.2906 26.6461 9.39773C27.1832 9.50486 27.6857 9.74271 28.1091 10.0902C28.5324 10.4378 28.8636 10.8843 29.0734 11.3903C29.2831 11.8963 29.3649 12.4461 29.3116 12.9913C29.2583 13.5364 29.0714 14.06 28.7676 14.5157C28.4637 14.9715 28.0523 15.3453 27.5696 15.6042C27.0869 15.8631 26.5478 15.999 26.0001 16H2.66675" stroke="white" stroke-width="2" stroke-linecap="round" stroke-linejoin="round"/>
</svg>
