<svg width="88" height="88" viewBox="0 0 88 88" fill="none" xmlns="http://www.w3.org/2000/svg">
<path d="M82.6469 23.5398C82.2114 21.7997 81.3243 20.2053 80.0753 18.9177C78.8263 17.6301 77.2597 16.6948 75.5336 16.2065C69.2269 14.6665 44.0002 14.6665 44.0002 14.6665C44.0002 14.6665 18.7736 14.6665 12.4669 16.3532C10.7408 16.8415 9.17414 17.7767 7.92516 19.0643C6.67618 20.3519 5.78912 21.9463 5.35356 23.6865C4.19934 30.0869 3.63476 36.5796 3.66689 43.0832C3.62575 49.6357 4.19037 56.1779 5.35356 62.6265C5.83374 64.3126 6.74068 65.8464 7.98675 67.0796C9.23282 68.3128 10.7759 69.2038 12.4669 69.6665C18.7736 71.3532 44.0002 71.3532 44.0002 71.3532C44.0002 71.3532 69.2269 71.3532 75.5336 69.6665C77.2597 69.1782 78.8263 68.243 80.0753 66.9553C81.3243 65.6677 82.2114 64.0733 82.6469 62.3332C83.7922 55.981 84.3568 49.5377 84.3336 43.0832C84.3747 36.5307 83.8101 29.9884 82.6469 23.5398V23.5398Z" stroke="#FF0000" stroke-width="2" stroke-linecap="round" stroke-linejoin="round"/>
<path d="M35.75 55.0733L56.8333 43.0833L35.75 31.0933V55.0733Z" stroke="white" stroke-width="2" stroke-linecap="round" stroke-linejoin="round"/>
</svg>
