<svg width="82" height="40" viewBox="0 0 82 40" fill="none" xmlns="http://www.w3.org/2000/svg">
<path d="M2.3229 39.8541H4.28709V32.6397H6.64904V30.9481H0V32.6397H2.3229V39.8541ZM19.0229 0C15.608 0 14.3077 1.52031 13.0262 5.95615L9.75299 17.2937C9.37982 18.5847 9.21927 19.1133 8.79982 19.1356C8.31528 19.1609 8.29792 18.3777 8.29792 17.2162V0H0.41222V20.4832C0.41222 22.3102 0.885189 24.0986 2.16669 25.4223C3.34694 26.6404 5.15058 27.2375 7.28979 27.303C10.8103 27.4132 14.61 26.2651 15.7251 22.3758L18.3865 13.0976C18.5268 12.6032 18.858 11.2393 19.0214 11.2363C19.1849 11.2378 19.5161 12.6032 19.6564 13.0976L22.3177 22.3758C23.3823 26.0879 26.8912 27.3015 30.27 27.3089H37.6306V21.2337H37.6032C37.622 20.985 37.6306 20.7348 37.6306 20.4832V0H29.7449V17.2162C29.7449 18.3777 29.7276 19.1609 29.243 19.1356C28.8236 19.1148 28.663 18.5847 28.2899 17.2937L25.0182 5.95615C23.7381 1.52031 22.4378 0 19.0229 0ZM55.952 27.3104H45.5106V15.6766C45.8866 16.4211 46.4001 16.981 46.7646 17.3756L55.952 27.3104ZM54.1831 0.00148904L45.5106 0V11.7009C45.9011 10.9459 46.4362 10.3756 46.7646 9.93634L54.1831 0.00148904ZM64.6491 9.70703C64.0561 9.63258 63.8146 9.12035 63.8912 8.7466C64.0547 7.95444 65.206 8.11823 65.786 8.11823H81.1568V0H64.1646L55.0943 11.549C54.9092 11.7842 54.6763 12.0791 54.4753 12.4007L54.5042 12.4752C55.7625 15.7793 60.2391 16.1173 62.5114 16.3809L72.2919 17.5126C72.8458 17.5766 73.125 18.1469 73.0787 18.4864C72.9688 19.3024 71.7075 19.1922 71.155 19.1922H58.366L66.11 27.3119H75.1181C77.0967 27.3119 79.3748 26.7059 80.5999 24.986C81.4909 23.7353 81.9378 21.8725 81.9928 19.9576C82.0521 17.9131 81.77 15.7749 80.8067 13.9806C79.5397 11.6234 77.318 11.2884 75.5332 11.0665L64.6491 9.70703ZM15.404 30.8037C12.8497 30.8037 11.1936 32.799 11.1936 35.4674C11.1936 38.0047 12.6949 40 15.2623 40C17.7906 40 19.5103 38.2295 19.5103 35.3095C19.5103 32.8526 18.0596 30.8037 15.404 30.8037ZM15.3519 32.4029C16.7 32.4029 17.4434 33.7773 17.4434 35.3751C17.4434 37.1053 16.6855 38.4008 15.365 38.4008C14.056 38.4008 13.2605 37.1723 13.2605 35.4272C13.2605 33.6984 14.03 32.4029 15.3519 32.4029ZM25.0702 39.8541H27.0084V36.3533H27.5985C28.394 36.3667 28.7672 36.6705 28.9972 37.7798C29.2532 38.8758 29.4586 39.6039 29.6003 39.8541H31.6021C31.4358 39.5101 31.1653 38.3472 30.8963 37.3436C30.6779 36.5246 30.3437 35.9305 29.7406 35.6788V35.6386C30.4855 35.3616 31.268 34.5814 31.268 33.4453C31.268 32.6263 30.9859 32.0054 30.4725 31.5825C29.8563 31.0807 28.9581 30.8826 27.6752 30.8826C26.6352 30.8826 25.6994 30.9615 25.0702 31.0673V39.8541ZM27.0084 32.4416C27.1501 32.4148 27.4192 32.3761 27.8936 32.3761C28.7918 32.3895 29.3313 32.799 29.3313 33.618C29.3313 34.3982 28.7542 34.9001 27.7779 34.9001H27.0084V32.4416ZM38.6258 39.8541H40.59V32.6397H42.9519V30.9481H36.3043V32.6397H38.6272V39.8541H38.6258ZM48.2529 30.9496V35.9171C48.2529 38.7581 49.5359 40 51.7185 40C53.9777 40 55.3243 38.6926 55.3243 35.9439V30.9496H53.3731V36.0764C53.3731 37.6488 52.809 38.3889 51.7821 38.3889C50.7812 38.3889 50.2157 37.6086 50.2157 36.0764V30.9496H48.2529ZM68.5211 34.7541H65.3V36.3265H66.635V38.1893C66.4817 38.2682 66.1216 38.3219 65.6732 38.3219C64.0691 38.3219 62.9525 37.2378 62.9525 35.4019C62.9525 33.4721 64.1849 32.5221 65.8149 32.5221C66.7652 32.5221 67.3553 32.6933 67.8298 32.9047L68.2405 31.2921C67.8167 31.0807 66.9576 30.8558 65.841 30.8558C63.0046 30.8558 60.9131 32.5474 60.9001 35.5061C60.8871 36.8135 61.3239 37.9764 62.1194 38.7433C62.9149 39.5354 64.0576 39.9464 65.6356 39.9464C66.7782 39.9464 67.9194 39.656 68.5226 39.4446V34.7541H68.5211ZM78.8165 37.5684L79.4833 39.8541H81.5878L78.9047 30.9481H76.3374L73.6934 39.8541H75.7212L76.3374 37.5684H78.8165ZM76.6209 36.063L77.1344 34.1734C77.2761 33.6582 77.4034 32.9837 77.5321 32.4551H77.5581C77.6869 32.9837 77.8402 33.6448 77.995 34.1734L78.5345 36.063H76.6209Z" fill="#050D26"/>
</svg>
